<svg version="1.1" id="Layer_1" xmlns="http://www.w3.org/2000/svg" x="0" y="0" viewBox="0 0 102.4 102.1" style="enable-background:new 0 0 102.4 102.1" xml:space="preserve"><style>.st0{fill:#fff}</style><path class="st0" d="m72.2 22.2-5 8.8h-7l6-18.4H28.5c-6.6 0-12.5 4.2-14.7 10.5l-12 37.5c-.4 1.2-.6 2.5-.6 3.8 0 7.3 6 13.3 13.3 13.3h23.3l-.4 11.9h23.5l41.8-67.3"/><path d="M3.6 61.1c-.3 1.1-.5 2.1-.5 3.2 0 6.3 5.1 11.3 11.3 11.3h25.3l-.4 11.9h20.4L99 24H73.3l-9 15.9.7-6.9h-7.5l6-18.4h-35c-5.8 0-11 3.7-12.8 9.2"/><path class="st0" d="M7.9 62.3zm68-33.8L58 60.2l2.1-22.9H32.9l-3.1 10.1H34l-3.9 12.4h-7.6l9.7-30.1h7.6l-1.4 4.4h14l4.9-15.2H28.5c-3.9 0-7.4 2.5-8.6 6.2l-6 18.6-4.1 12.8-1.9 5.8c-.2.7-.3 1.4-.3 2.1 0 3.8 3.1 6.9 6.9 6.9h26l4.2-13.2-.8 25h13.3l33.9-54.6"/><path d="M32.1 45.7h4.3l-.2.6-4.7 14.9-.1.3H20.2l.2-.6 10.5-32.7.1-.2h11.2l-.2.6-1.2 3.8h10.4L55 20.7H28.5c-3.2 0-6 2-7 5L9.6 62.8c-.8 2.7.7 5.6 3.4 6.5.5.2 1 .2 1.5.2h24.8l6.2-19.3.1-.3h1.2v.5l-1 31h10.6L88 30.3H76.9L57 65.6l-.1.2h-1.1v-.5l2.4-26.2h-24" style="fill:#0033a0"/></svg>