<svg version="1.1" id="katman_1" xmlns="http://www.w3.org/2000/svg" x="0" y="0" viewBox="0 0 270.1 270.1" style="enable-background:new 0 0 270.1 270.1" xml:space="preserve"><style>.st0{fill:#fbcb07}.st1{fill:#fff}</style><path class="st0" d="m89.5 123.3-79.9 5.1c-.3 0-.7-.1-.8-.4-.2-.3-.2-.6 0-.9l10.1-16.7L-8 94.3c-4.2 5.4-8.9 10.9-14 16.5l66.8 64.6 13-13c.2-.2.5-.3.8-.2s.5.3.6.6l31 80.6c.3.7-.5 1.4-1.2 1.2l-80.6-31c-.3-.1-.5-.4-.6-.7s0-.6.2-.8l13-13-64.4-66.8c-5.6 5.1-11.1 9.8-16.5 14l16.1 26.7 16.8-10.1c.3-.2.6-.2.9 0s.4.5.4.8l-5.1 79.9c0 .4-.3.7-.7.8-.4.1-.8-.1-1-.4l-34-56.3c-.1-.1-.1-.2-.1-.4L-97 136.8c-.1-.2-.2-.5-.1-.7s.2-.4.4-.6c8.7-4.6 20.8-13.7 32.7-24.5l-40.9-42.3 19.3-19.3 42.4 41c10.8-11.9 19.9-24.1 24.5-32.8.1-.2.3-.4.6-.4.2-.1.5 0 .7.1l50.5 30.3c.1 0 .3.1.4.1l56.4 34c.3.2.5.6.4 1-.1.3-.4.6-.8.6" transform="matrix(1.35937 0 0 -1.35937 145 334.987)"/><path class="st1" d="M-27.5 163.7zm86.5-.1zm-154.9-26.5zM9.4 126.8zm80-5.1zM32.9 89.3zm-51.2-30.6zm1.1-.3zm-85.3 10.3 17-17 41.2 39.8c.3.3.8.5 1.2.5.5 0 .9-.2 1.2-.6 10.5-11.5 19.5-23.5 24.3-32.2l49.8 29.9c.2.1.3.2.5.2l54.1 32.5-75.8 4.9 9.3-15.4c.5-.8.2-1.8-.6-2.3L-7.1 92.9c-.7-.4-1.7-.3-2.2.4-4.2 5.3-8.9 10.9-13.9 16.4-.6.7-.6 1.7.1 2.4l66.8 64.6c.7.6 1.7.6 2.4 0l12.1-12.1 29.9 77.8-77.8-29.9 12.1-12.1c.7-.7.7-1.7 0-2.4l-64.6-66.9c-.6-.7-1.7-.7-2.4-.1-5.6 5.1-11.1 9.7-16.4 13.9-.7.5-.8 1.5-.4 2.2l16.1 26.7c.2.4.6.7 1 .8s.9 0 1.3-.2l15.4-9.3-4.9 75.9-32.5-54.1c0-.2-.1-.4-.2-.5l-29.9-49.7c8.7-4.8 20.7-13.8 32.3-24.3.3-.3.5-.7.6-1.2 0-.5-.2-.9-.5-1.2l-39.8-41.3zm16.9-21c-.4 0-.9.2-1.2.5l-19.3 19.3c-.7.7-.7 1.7 0 2.4l39.8 41.1c-11.4 10.2-22.9 18.7-31.1 23.1-.6.3-1.1.9-1.3 1.6-.2.7-.1 1.4.3 2l30.2 50.3c.1.2.1.4.3.6l33.9 56.5c.6 1 1.7 1.4 2.8 1.2 1.1-.3 1.9-1.2 2-2.4l5.1-80c.1-1-.4-1.9-1.2-2.4-.8-.5-1.8-.5-2.7 0l-15.3 9.2-14.4-24c4.7-3.7 9.4-7.7 14.2-12l62.3 64.4L7 210.9c-.6.6-.9 1.5-.7 2.4.2.9.8 1.6 1.6 1.9l80.6 31c.9.4 2 .1 2.7-.6.7-.7 1-1.8.6-2.7l-31-80.6c-.3-.8-1-1.4-1.9-1.6s-1.8.1-2.4.7l-11.8 11.8-64.3-62.4c4.3-4.8 8.4-9.6 12.1-14.2l24 14.4-9.2 15.3c-.5.8-.5 1.9 0 2.7s1.4 1.3 2.4 1.2l79.9-5.1c1.1-.1 2.1-.9 2.4-2 .3-1.1-.2-2.3-1.2-2.8L34.3 86.4l-.6-.3-50.3-30.3c-.6-.4-1.3-.5-2-.3s-1.3.7-1.6 1.3c-4.3 8.2-12.9 19.7-23 31.1l-41.2-39.7c-.3-.3-.8-.5-1.2-.5z" transform="matrix(1.35937 0 0 -1.35937 145 334.987)"/><path class="st1" d="m78 225.2-26.3-47.7 4.9-4.9L78 225.2zM69.4 115l-87.5-43.3 3.3-5.4L69.4 115zM-33.7 215.4l2.1-43.9-5.3 3.2 3.2 40.7z" transform="matrix(1.35937 0 0 -1.35937 145 334.987)"/><path d="m89.5 123.3-79.9 5.1c-.3 0-.7-.1-.8-.4-.2-.3-.2-.6 0-.9l10.1-16.7L-8 94.3c-4.2 5.4-8.9 10.9-14 16.5l66.8 64.6 13-13c.2-.2.5-.3.8-.2s.5.3.6.6l31 80.6c.3.7-.5 1.4-1.2 1.2l-80.6-31c-.3-.1-.5-.4-.6-.7s0-.6.2-.8l13-13-64.4-66.8c-5.6 5.1-11.1 9.8-16.5 14l16.1 26.7 16.8-10.1c.3-.2.6-.2.9 0s.4.5.4.8l-5.1 79.9c0 .4-.3.7-.7.8-.4.1-.8-.1-1-.4l-34-56.3c-.1-.1-.1-.2-.1-.4L-97 136.8c-.1-.2-.2-.5-.1-.7s.2-.4.4-.6c8.7-4.6 20.8-13.7 32.7-24.5l-40.9-42.3 19.3-19.3 42.4 41c10.8-11.9 19.9-24.1 24.5-32.8.1-.2.3-.4.6-.4.2-.1.5 0 .7.1l50.5 30.3c.1 0 .3.1.4.1l56.4 34c.3.2.5.6.4 1-.1.3-.4.6-.8.6" style="fill:#192847" transform="matrix(1.35937 0 0 -1.35937 145 334.987)"/><path class="st0" d="M-27.5 163.7zm86.5-.1zm-154.9-26.5zM9.4 126.8zm80-5.1zM32.9 89.3zm-51.2-30.6zm1.1-.3zm-85.3 10.3 17-17 41.2 39.8c.3.3.8.5 1.2.5.5 0 .9-.2 1.2-.6 10.5-11.5 19.5-23.5 24.3-32.2l49.8 29.9c.2.1.3.2.5.2l54.1 32.5-75.8 4.9 9.3-15.4c.5-.8.2-1.8-.6-2.3L-7.1 92.9c-.7-.4-1.7-.3-2.2.4-4.2 5.3-8.9 10.9-13.9 16.4-.6.7-.6 1.7.1 2.4l66.8 64.6c.7.6 1.7.6 2.4 0l12.1-12.1 29.9 77.8-77.8-29.9 12.1-12.1c.7-.7.7-1.7 0-2.4l-64.6-66.9c-.6-.7-1.7-.7-2.4-.1-5.6 5.1-11.1 9.7-16.4 13.9-.7.5-.8 1.5-.4 2.2l16.1 26.7c.2.4.6.7 1 .8s.9 0 1.3-.2l15.4-9.3-4.9 75.9-32.5-54.1c0-.2-.1-.4-.2-.5l-29.9-49.7c8.7-4.8 20.7-13.8 32.3-24.3.3-.3.5-.7.6-1.2 0-.5-.2-.9-.5-1.2l-39.8-41.3zm16.9-21c-.4 0-.9.2-1.2.5l-19.3 19.3c-.7.7-.7 1.7 0 2.4l39.8 41.1c-11.4 10.2-22.9 18.7-31.1 23.1-.6.3-1.1.9-1.3 1.6-.2.7-.1 1.4.3 2l30.2 50.3c.1.2.1.4.3.6l33.9 56.5c.6 1 1.7 1.4 2.8 1.2 1.1-.3 1.9-1.2 2-2.4l5.1-80c.1-1-.4-1.9-1.2-2.4-.8-.5-1.8-.5-2.7 0l-15.3 9.2-14.4-24c4.7-3.7 9.4-7.7 14.2-12l62.3 64.4L7 210.9c-.6.6-.9 1.5-.7 2.4.2.9.8 1.6 1.6 1.9l80.6 31c.9.4 2 .1 2.7-.6.7-.7 1-1.8.6-2.7l-31-80.6c-.3-.8-1-1.4-1.9-1.6s-1.8.1-2.4.7l-11.8 11.8-64.3-62.4c4.3-4.8 8.4-9.6 12.1-14.2l24 14.4-9.2 15.3c-.5.8-.5 1.9 0 2.7s1.4 1.3 2.4 1.2l79.9-5.1c1.1-.1 2.1-.9 2.4-2 .3-1.1-.2-2.3-1.2-2.8L34.3 86.4l-.6-.3-50.3-30.3c-.6-.4-1.3-.5-2-.3s-1.3.7-1.6 1.3c-4.3 8.2-12.9 19.7-23 31.1l-41.2-39.7c-.3-.3-.8-.5-1.2-.5z" transform="matrix(1.35937 0 0 -1.35937 145 334.987)"/><path class="st0" d="m78 225.2-26.3-47.7 4.9-4.9L78 225.2zM69.4 115l-87.5-43.3 3.3-5.4L69.4 115zM-33.7 215.4l2.1-43.9-5.3 3.2 3.2 40.7z" transform="matrix(1.35937 0 0 -1.35937 145 334.987)"/></svg>