<svg version="1.1" id="Layer_1" xmlns="http://www.w3.org/2000/svg" x="0" y="0" viewBox="0 0 200 200" style="enable-background:new 0 0 200 200" xml:space="preserve"><style>.st0,.st4,.st5,.st6{fill-rule:evenodd;clip-rule:evenodd;fill:#bc0a3f}.st4,.st5,.st6{fill:#fefefe}.st5,.st6{fill:#007360}.st6{fill:#231f20}</style><g id="washington-st-louis"><g id="washington-st-louis_BGL"><g id="Group-36" transform="translate(0 16)"><path id="Fill-1" class="st0" d="M112.3 117H87.7v-5.9h-3.3v9.2h31.2v-9c-1.1 0-2.2-.1-3.3-.1v5.8z"/><g id="Group-5" transform="translate(0 .127)"><defs><filter id="Adobe_OpacityMaskFilter" filterUnits="userSpaceOnUse" x=".4" y=".8" width="199.2" height="166.5"><feColorMatrix values="1 0 0 0 0 0 1 0 0 0 0 0 1 0 0 0 0 0 1 0"/></filter></defs><mask maskUnits="userSpaceOnUse" x=".4" y=".8" width="199.2" height="166.5" id="mask-2_00000131363017503082815910000013665632027118434958_"><g style="filter:url(#Adobe_OpacityMaskFilter)"><path id="path-1_00000016778775071939593880000001298238207813456560_" style="fill-rule:evenodd;clip-rule:evenodd;fill:#fff" d="M.4.8h199.2v166.5H.4z"/></g></mask><path id="Fill-3" d="m195.9 42.9-3.4.5c-7 1-10.4 1.4-17.4 2.1l-3.4.4c-2 .2-3.7.4-5.2.5v-4.1l5.9-.6 2.9-.3V.8l-3.5.3-2.1.2h-.1c-3.5.3-35.1 2.8-61.2 3.3h-1.9l-3.2.1v40.4l3.3-.1 5.7-.1v7.6h3.3V41.6l-9 .2V7.9h1.9c27.7-.5 61.1-3.3 61.5-3.3l2.1-.2v34.1l-8.8 1V50c2.7-.2 5.3-.5 8.8-.9l3.4-.4c7.1-.8 10.5-1.2 17.5-2.1l3.4-.5v20.7l-2.6.2-.1 29.3 2.6.2v20.8l-3.4-.5-2.1-.3c-.3 0-.6-.1-.9-.1-.1 0-.3 0-.4-.1-.2 0-.4-.1-.6-.1-.1 0-.3 0-.4-.1-.3 0-.6-.1-1-.1-.2 0-.3 0-.5-.1-.2 0-.5-.1-.7-.1-.2 0-.4 0-.6-.1-.3 0-.6-.1-.9-.1-.2 0-.4 0-.6-.1-.3 0-.6-.1-.9-.1-.2 0-.4 0-.6-.1-.3 0-.6-.1-1-.1-.2 0-.3 0-.5-.1-.5-.1-.9-.1-1.4-.2h-.4c-.4 0-.8-.1-1.2-.1h-.4c-.6-.1-1.1-.1-1.7-.2h-.1c-.6-.1-1.1-.1-1.7-.2h-.3c-1.3-.1-2.6-.3-3.9-.4-2.1-.2-4.3-.4-6.7-.6v31l-24.9 19.4H61.7l-24.9-19.4v-31.2l-2.8.3c-8.3.8-12.4 1.2-20.5 2.3l-3.4.4V95.8l2.4-.2C10.6 86.5 8.8 76.9 7 67.2h-.5L3.7 67V46.3l3.4.5h.3c.3 0 .5.1.8.1.2 0 .3 0 .5.1H9c.7.1 1.5.2 2.3.3h.3c.8.1 1.7.2 2.7.3.2 0 .3 0 .5.1.3 0 .5.1.8.1.2 0 .5.1.7.1.4 0 .7.1 1.1.1.3 0 .7.1 1 .1.2 0 .4 0 .7.1.4 0 .8.1 1.2.1.2 0 .3 0 .5.1.6.1 1.1.1 1.7.2h.5c.5.1 1 .1 1.5.2h.4c.7.1 1.4.1 2 .2h.1c.7.1 1.3.1 2 .2h.4c1.4.1 2.9.3 4.5.4h.5c.6.1 1.3.1 2 .2h.3V39.4l-8.8-1v-34l2.1.2c.3 0 33.7 2.8 61.5 3.3h1.9v33.9l-9-.2v10.8c1.1 0 2.2.1 3.3.1V45l5.7.1 3.3.1V4.7l-3.2-.1h-1.9c-26-.5-57.6-3-61.1-3.3h-.1l-2-.2-3.5-.3v40.6l2.9.3 5.9.6v3.9C21.3 45.1 12.3 44 7.8 43.4H7.5l-3.4-.5-3.7-.5v27.4l3 .2.9.1c1.4 7.5 2.8 15.1 4.3 22.7l-1.7.1V120l3.7-.5 3.4-.4c7.9-1 11.9-1.4 19.7-2.2V146.1l1.3 1 24.9 19.4.9.7H139.6l.9-.7 24.9-19.4 1.3-1v-29c10.5.9 18.7 1.9 23.8 2.6l1 .1 1.1.1 3.4.5 3.7.5V93.4l-2.6-.2V70l2.6-.2V42.3l-3.8.6z" style="mask:url(#mask-2_00000131363017503082815910000013665632027118434958_);fill-rule:evenodd;clip-rule:evenodd;fill:#bc0a3f"/></g><path id="Fill-6" class="st0" d="M99.8 131.8H73.1v-20.4c-.7 0-1.3 0-2 .1-2.5.1-5.1.2-8.5.4l-1.9.1-2 .1c-3.8.2-6.8.4-9.6.6v25.5l.7.5 16.7 12.6h67l16.7-12.6.7-.5v-25.3c-7.4-.5-15.4-1-24.1-1.3v20.2H99.8z"/><path id="Fill-8" class="st0" d="M49 36.6v14.2c7.4.5 15.4 1 24.1 1.3V29.3h1.7l6 .2V20c-13.3-.4-33.7-1.5-39.7-1.9v9.3l6.5.6 1.5.1v8.5z"/><path id="Fill-10" class="st0" d="m151 28.2 1.5-.1 6.5-.6v-9.3c-6.1.3-26.4 1.4-39.7 1.9v9.6l6-.2h1.7v23c4.3-.1 8.6-.3 13-.5.8 0 1.7-.1 2.6-.2l1.4-.1c2.3-.1 4.7-.3 7-.4V28.2z"/><path id="Fill-12" class="st4" d="M193.3 64.2c-1.1.1-1.6.1-2.6.2 0 11.6 0 23.3-.1 34.9 1.1.1 1.6.1 2.6.2V114c-6.9-1-10.4-1.4-17.6-2.2V98.3c1.1.1 1.6.1 2.7.2V88.4c-3.5-.1-5.3-.1-8.8-.2V98c1.1.1 1.6.1 2.7.2v13.4c-3.6-.4-6.3-.6-9-.9-.6-.1-1.3-.1-1.9-.2-.6-.1-1.2-.1-1.9-.2-1.6-.1-3.3-.3-5.3-.4V97.3c1.1 0 1.7.1 2.8.1 0-10.3 0-20.7.1-31-1.1 0-1.7.1-2.8.1V53.9c2-.1 3.6-.3 5.2-.4.7-.1 1.3-.1 1.9-.2.6-.1 1.3-.1 1.9-.2 2.8-.2 5.5-.5 9.1-.9v13.3c-1.1.1-1.6.1-2.7.2v8c3.6-.1 5.3-.2 8.8-.3v-8.3c-1.1.1-1.6.1-2.7.2V51.8c7.1-.8 10.6-1.2 17.6-2.2v14.6zM35.5 80.9c-1.7 6.7-2.5 10.1-4.2 17 1-.1 1.5-.1 2.5-.1v13.1c-8.4.8-12.5 1.2-20.6 2.3V99.1c1.2-.1 1.8-.1 3-.2C14 87.4 11.8 76 9.7 64.5c-1.1-.1-1.7-.1-2.9-.2V49.9c6.3.9 9.5 1.3 15.9 2v13.5c-.9-.1-1.4-.1-2.3-.1 1.6 8.1 2.4 12.1 4 20 1.6-7.9 2.4-11.8 4.1-19.5-.8 0-1.2-.1-2.1-.1V52.3c4.2.4 7.2.8 10.5 1 .6.1 1.3.1 1.9.2.6.1 1.2.1 1.9.2 1.2.1 2.6.2 4.1.3v12.6c-.8 0-1.2-.1-2-.1 1.6 7.5 2.4 11.2 4.1 18.6.2-1 .4-1.9.6-2.8.2-.9.4-1.7.6-2.4.4-1.7.7-3.2 1.1-4.8.6-2.5 1.2-5 1.9-8.3-.8 0-1.3 0-1.9-.1h-.5V54.2h.5c6.4.5 9.8.7 16.4 1v12c-1.2 0-1.8-.1-3.1-.1-2.6 9.9-4.9 19.9-7.2 29.8 1.3 0 1.9-.1 3.2-.1V109c-3.8.2-6.7.4-9.5.6-.3 0-.5 0-.8.1-.3 0-.6 0-.9.1-2.1.2-4.2.3-6.7.5-.6.1-1.2.1-1.9.2-.3 0-.7.1-1 .1V97.7h1c.4 0 .7 0 1.2-.1-.4-1.6-.8-3-1.2-4.3-.7-2.5-1.2-4.6-1.9-7.1-.4-1.6-.8-3.3-1.3-5.3zm12-52.9-6.5-.6v-9.3c6.1.3 26.4 1.4 39.7 1.9v9.6l-6-.1H73v22.8c-8.6-.3-16.7-.8-24.1-1.3V28.1l-1.4-.1zm-15.7 7.2V8.6c7.5.6 34.3 2.6 57.8 3.1V38l-9-.2v14.6c-2-.1-3.9-.1-5.9-.2v-21l7.7.2v-13c-15.6-.5-43-2-43-2V29l8 .7v21c-2.3-.2-4.6-.3-6.7-.5V36.1l-8.9-.9zm55.9 20.6c4 .1 8 .1 12 .1V67.6h-2.5c3.6 9.5 7.1 19 10.7 28.5h2.9v11.8c-7.5-.1-11.3-.1-18.8 0V96.1h1.6c-.3-.9-.4-1.4-.7-2.4-3.5 0-5.8 0-8.5.1H80c-.3 1-.5 1.4-.8 2.4H80.8V108h-.2c-2.2.1-4.1.1-5.9.2-.6 0-1.1 0-1.7.1-3.3.1-6.3.3-10.6.5V96.7c1.1 0 1.7 0 2.8-.1 2.5-7.2 5.1-14.3 7.8-21.5.6-1.5 1.1-3 1.7-4.5.4-1 .8-2.1 1.2-3.1h-2.1V55.6h.9c2 .1 3.9.1 5.9.1h3.8c1.1.1 2.2.1 3.3.1zm26.3 8.4c.6-.6 1.1-1.2 1.6-1.8.7-.7 1.3-1.4 1.9-2.1.6-.7 1.2-1.4 1.9-2.1.7-.8 1.4-1.6 2.3-2.6 1.3 0 2.4-.1 3.6-.1.6 0 1.1 0 1.7-.1 5.4-.2 9.4-.4 15.8-.8 3 3.3 4.5 5 7.5 8.4v10.9c-5.1.1-7.7.1-12.9.2 0-2.8 0-4.3.1-7.1-4 .1-6 .2-10 .2 0 3.5-.1 5.3-.1 8.8 6.2 0 9.3-.1 15.4-.2 3 3.4 4.5 5.2 7.5 8.7v16.1c-3 3.4-4.5 5.1-7.5 8.3-6.4-.4-10.3-.6-15.7-.8-.5 0-1.1 0-1.7-.1-1.1 0-2.4-.1-3.7-.1-.8-.9-1.5-1.7-2.2-2.4-.7-.7-1.3-1.4-1.9-2.1-.6-.7-1.2-1.3-1.9-2.1-.5-.6-1.1-1.2-1.7-1.9v-10h5.5c1.9 0 3.7 0 5.9.1h1.9c0 2.7-.1 4-.1 6.7 4 .1 6 .1 10 .2 0-3.4.1-5.1.1-8.6-4.2 0-7-.1-10.3-.1h-5.3c-.8-.9-1.6-1.7-2.2-2.4-.7-.7-1.3-1.4-1.9-2.1-.6-.7-1.2-1.3-1.9-2.1-.5-.6-1.1-1.1-1.7-1.8V64.2zM152.7 51V29.8l8-.7V16.4s-27.4 1.5-43 2v13l7.7-.2v21.3c-2 .1-3.9.1-5.9.1V37.8l-9 .2V11.8c23.5-.5 50.3-2.5 57.8-3.1v26.5l-8.8 1v14.4c-1.6.1-3.4.3-5.4.4h-1.4zm-25.8-5.6v-16h-1.7l-6 .1V20c13.3-.4 33.7-1.5 39.7-1.9v9.3l-6.5.6-1.5.1v23c-2.3.2-4.7.3-7 .4l-1.4.1c-.9.1-1.8.1-2.6.2-4.4.2-8.7.4-13 .5v-6.9zm-53.8 86.4h53.8v-20.2c8.6.3 16.7.8 24.1 1.3v25.3l-.7.5-16.7 12.6H66.5l-16.7-12.6-.7-.5v-25.5c2.9-.2 5.8-.4 9.6-.6l2-.1 1.9-.1c3.4-.2 6-.3 8.5-.4.7 0 1.3 0 2-.1v20.4zm46.3-7.7v-12.7c2 .1 3.9.1 5.9.2v18.5H74.7v-18.8c2-.1 3.9-.1 5.9-.2V124h38.8zm-31.7-13c8.5-.1 16.8-.1 24.7.1 1.1 0 2.2 0 3.3.1v9H84.4v-9.2h3.3zm71.7 31.9L137 160.4H63L40.6 143v-29.6c2.5-.2 4.6-.4 6.7-.5v26.3L65.9 153H134.1l18.6-13.9V113c2.3.2 4.6.3 6.7.5V143zm36.9-76V46.3l-3.4.5c-7 1-10.4 1.4-17.5 2.1l-3.4.4c-3.5.4-6.2.6-8.8.9V39.6l8.8-1V4.5l-2.1.2c-.3 0-33.7 2.8-61.5 3.3h-1.9v33.9l9-.2v10.9h-3.3c-8.5.1-16.8 0-24.7-.1-1.1 0-2.2 0-3.3-.1V41.7l9 .2V8h-1.9c-27.5-.5-60.9-3.3-61.2-3.3L28 4.5v34.1l8.8 1V50h-.3c-.7-.1-1.3-.1-2-.2H34c-1.5-.1-3-.3-4.5-.4h-.4c-.7-.1-1.4-.1-2-.2H27c-.7-.1-1.4-.1-2-.2h-.4c-.5-.1-1-.1-1.5-.2h-.5c-.6-.1-1.2-.1-1.7-.2-.2 0-.3 0-.5-.1-.4 0-.8-.1-1.2-.1-.2 0-.4 0-.7-.1-.3 0-.7-.1-1-.1-.4 0-.8-.1-1.1-.1-.2 0-.5-.1-.7-.1-.3 0-.6-.1-.8-.1-.2 0-.3 0-.5-.1l-2.7-.3h-.3c-.8-.1-1.6-.2-2.3-.3h-.3c-.2 0-.4 0-.5-.1-.3 0-.6-.1-.8-.1h-.3l-3.4-.5v20.7l2.8.2h.5c1.8 9.7 3.6 19.3 5.4 28.8l-2.4.2v20.4l3.4-.4c8.2-1 12.2-1.5 20.5-2.3l2.8-.3V145l24.9 19.4h76.6l24.9-19.4v-31c2.3.2 4.6.4 6.7.6 1.4.1 2.7.3 3.9.4h.3c.6.1 1.2.1 1.7.2h.1c.6.1 1.1.1 1.7.2h.4c.4 0 .8.1 1.2.1h.4c.5.1 1 .1 1.4.2h.5c.3 0 .6.1 1 .1.2 0 .4 0 .6.1.3 0 .6.1.9.1.2 0 .4 0 .6.1.3 0 .6.1.9.1.2 0 .4 0 .6.1.2 0 .5.1.7.1.2 0 .3 0 .5.1.3 0 .7.1 1 .1.2 0 .3 0 .4.1.2 0 .4.1.6.1.1 0 .3 0 .4.1.3 0 .6.1.9.1l2.1.3 3.4.5V97l-2.6-.2.1-29.3 2.7-.5z"/><path id="Fill-14" class="st4" d="M89.5 83.9c-1.2-3.3-1.9-4.9-3.1-8.3-.8 2.2-1.4 3.7-2 5.4-.3.9-.7 1.8-1.1 2.9H89.5"/><path id="Fill-16" class="st5" d="M40.6 50.2c2.2.2 4.4.3 6.7.5v-21l-8-.7V16.4s27.4 1.5 43 2v13l-7.7-.2v21c1.9.1 3.9.1 5.9.2V37.8l9 .2V11.8C66 11.3 39.2 9.3 31.7 8.7v26.5l8.8 1v14z"/><path id="Fill-18" class="st5" d="M152.7 115.9v23.2L134.1 153H65.9l-18.6-13.9v-26.3c-2.1.2-4.2.3-6.7.5V143L63 160.4h74l22.4-17.4v-29.4c-2.2-.2-4.4-.3-6.7-.5v2.8z"/><path id="Fill-20" class="st5" d="M74.7 111.3v18.8h50.6v-18.5c-1.9-.1-3.9-.1-5.9-.2v12.7H80.6v-12.9c-1.9 0-3.9.1-5.9.1"/><path id="Fill-22" class="st5" d="M119.4 52.6c1.9 0 3.9-.1 5.9-.1V31.2l-7.7.2v-13c15.6-.5 43-2 43-2V29l-8 .7V51l1.3-.1c2.1-.2 3.8-.3 5.4-.4V36.1l8.8-1V8.6c-7.5.6-34.3 2.6-57.8 3.1V38l9-.2v14.8z"/><path id="Fill-24" class="st5" d="M84.4 83.9h-1.1c.4-1.1.8-2 1.1-2.9.6-1.7 1.2-3.2 2-5.4 1.2 3.3 1.8 5 3.1 8.3h-5.1m15.2-18.6V56c-4 0-8-.1-12-.1-1.1 0-2.2 0-3.3-.1h-3.8c-2 0-3.9-.1-5.9-.1h-.9v11.9h2.1c-.4 1-.8 2.1-1.2 3.1-.6 1.5-1.1 3-1.7 4.5-2.6 7.2-5.2 14.3-7.8 21.5-1.1 0-1.7 0-2.8.1v12.1c4.3-.2 7.3-.4 10.6-.5.5 0 1.1 0 1.7-.1 1.8-.1 3.6-.1 5.9-.2h.2V96.3H79.1c.3-1 .5-1.4.8-2.4h4.4c2.7 0 5 0 8.5-.1.3.9.4 1.4.7 2.4h-1.6V108c7.5-.1 11.3-.1 18.8 0V96.2h-2.9c-3.5-9.5-7.1-19-10.7-28.5h2.5v-2.4"/><path id="Fill-26" class="st5" d="M150.2 74V63.1c-3-3.4-4.5-5.1-7.5-8.4-6.4.4-10.4.6-15.8.8-.5 0-1.1 0-1.7.1-1.1 0-2.3.1-3.6.1-.9 1-1.6 1.8-2.3 2.6-.7.7-1.3 1.4-1.9 2.1-.6.7-1.2 1.3-1.9 2.1-.5.5-1 1.1-1.6 1.8v15.4c.6.7 1.2 1.2 1.7 1.8.7.7 1.3 1.4 1.9 2.1.6.7 1.2 1.3 1.9 2.1.7.7 1.4 1.5 2.2 2.4h5.3c3.3 0 6.1.1 10.3.1 0 3.4-.1 5.1-.1 8.6-4-.1-6-.2-10-.2 0-2.7 0-4 .1-6.7h-1.9c-2.2 0-4 0-5.9-.1h-5.5v10c.6.7 1.2 1.3 1.7 1.9.7.7 1.3 1.4 1.9 2.1.6.7 1.2 1.4 1.9 2.1.7.7 1.4 1.5 2.2 2.4 1.3 0 2.5.1 3.7.1.6 0 1.1 0 1.7.1 5.3.2 9.3.4 15.7.8 3-3.3 4.5-5 7.5-8.3V84.9c-3-3.6-4.5-5.3-7.5-8.7-6.1.1-9.2.1-15.4.2 0-3.5.1-5.2.1-8.8 4-.1 6-.1 10-.2 0 2.8 0 4.3-.1 7.1 5.1-.4 7.7-.4 12.9-.5"/><path id="Fill-28" class="st5" d="M193.3 64.2V49.8c-6.9 1-10.4 1.4-17.6 2.2v13.5c1.1-.1 1.6-.1 2.7-.2v8.3c-3.5.1-5.3.2-8.8.3v-8c1.1-.1 1.6-.1 2.7-.2V52.4c-3.6.4-6.4.6-9.1.9-.6.1-1.3.1-1.9.2-.6.1-1.2.1-1.9.2-1.6.1-3.2.3-5.2.4v12.6c1.1 0 1.7-.1 2.8-.1 0 10.3-.1 20.7-.1 31-1.1 0-1.7-.1-2.8-.1v12.6c2 .2 3.7.3 5.3.4.7.1 1.3.1 1.9.2.6.1 1.3.1 1.9.2 2.7.2 5.4.5 9 .9V98.4c-1.1-.1-1.6-.1-2.7-.2v-9.8c3.6.1 5.3.1 8.8.2v10.1c-1.1-.1-1.6-.1-2.7-.2V112c7.1.8 10.6 1.2 17.6 2.2V99.7c-1.1-.1-1.6-.1-2.6-.2 0-11.6 0-23.3.1-34.9 1-.3 1.5-.3 2.6-.4"/><path id="Fill-30" class="st5" d="M47.3 109.8c.3 0 .6 0 .9-.1.3 0 .5 0 .8-.1 2.8-.2 5.7-.4 9.5-.6V96.8c-1.3 0-2 .1-3.2.1C57.6 87 60 77 62.4 67.1c1.2 0 1.8.1 3.1.1v-12c-6.6-.3-10-.5-16.4-1h-.5v12.5h.5c.7 0 1.1 0 1.9.1-.8 3.2-1.4 5.7-2 8.2-.4 1.6-.7 3.1-1.1 4.8l-.6 2.4c-.2.9-.4 1.8-.6 2.8-1.6-7.4-2.4-11.1-4.1-18.6.8 0 1.2.1 2 .1V53.9c-1.5-.1-2.8-.2-4.1-.3-.7-.1-1.3-.1-1.9-.2-.6-.1-1.3-.1-1.9-.2-3.3-.3-6.3-.6-10.5-1v13.4c.8 0 1.2.1 2.1.1-1.6 7.7-2.4 11.6-4.1 19.5-1.6-7.9-2.4-11.9-4-20 .9.1 1.4.1 2.3.1V51.8c-6.4-.7-9.6-1.1-15.9-2v14.4c1.1.1 1.7.1 2.9.2 2.1 11.5 4.3 23 6.5 34.4-1.2.1-1.8.1-3 .2v14.1c8.1-1 12.3-1.5 20.6-2.3V97.7c-1 .1-1.5.1-2.5.1 1.7-6.9 2.5-10.3 4.2-17 .5 2 1 3.6 1.4 5.2.7 2.5 1.2 4.6 1.9 7.1.4 1.3.7 2.7 1.2 4.3-.5 0-.8 0-1.2.1h-1v12.9c.4 0 .7-.1 1-.1.7-.1 1.3-.1 1.9-.2 2.6 0 4.7-.2 6.8-.3"/><path id="Fill-32" class="st6" d="M170.6 125.1h1.5v3.9h1v-3.9h1.5v-.8h-4z"/><path id="Fill-34" class="st6" d="m177.4 127.4-.7-3.1H175v4.7h.9v-3.9h.1l.9 3.9h1l.9-3.9v3.9h.9v-4.7H178z"/></g></g></g></svg>